<?xml version="1.0" encoding="UTF-8"?>
<svg height="1480" width="1480" viewBox="0 0 37 37" role="img"><title>ConnectAble partner interest form</title><path fill="#ffffff" d="M0,0 h37v37H0z" shape-rendering="crispEdges"></path><path fill="#172d1c" d="M4 4h7v1H4zM12 4h2v1H12zM15 4h1v1H15zM17 4h3v1H17zM21 4h1v1H21zM24 4h1v1H24zM26,4 h7v1H26zM4 5h1v1H4zM10 5h1v1H10zM12 5h2v1H12zM15 5h1v1H15zM17 5h3v1H17zM21 5h1v1H21zM23 5h2v1H23zM26 5h1v1H26zM32,5 h1v1H32zM4 6h1v1H4zM6 6h3v1H6zM10 6h1v1H10zM12 6h1v1H12zM17 6h2v1H17zM22 6h1v1H22zM26 6h1v1H26zM28 6h3v1H28zM32,6 h1v1H32zM4 7h1v1H4zM6 7h3v1H6zM10 7h1v1H10zM13 7h1v1H13zM18 7h4v1H18zM23 7h2v1H23zM26 7h1v1H26zM28 7h3v1H28zM32,7 h1v1H32zM4 8h1v1H4zM6 8h3v1H6zM10 8h1v1H10zM12 8h1v1H12zM15 8h1v1H15zM17 8h1v1H17zM19 8h1v1H19zM22 8h1v1H22zM26 8h1v1H26zM28 8h3v1H28zM32,8 h1v1H32zM4 9h1v1H4zM10 9h1v1H10zM13 9h3v1H13zM17 9h2v1H17zM21 9h2v1H21zM24 9h1v1H24zM26 9h1v1H26zM32,9 h1v1H32zM4 10h7v1H4zM12 10h1v1H12zM14 10h1v1H14zM16 10h1v1H16zM18 10h1v1H18zM20 10h1v1H20zM22 10h1v1H22zM24 10h1v1H24zM26,10 h7v1H26zM14 11h1v1H14zM16 11h1v1H16zM18 11h1v1H18zM23 11h1v1H23zM4 12h1v1H4zM7 12h6v1H7zM14 12h1v1H14zM16 12h3v1H16zM21 12h1v1H21zM23 12h3v1H23zM28 12h1v1H28zM30,12 h3v1H30zM8 13h2v1H8zM13 13h2v1H13zM16 13h1v1H16zM18 13h3v1H18zM25 13h1v1H25zM27 13h2v1H27zM30 13h2v1H30zM4 14h1v1H4zM6 14h1v1H6zM10 14h1v1H10zM12 14h1v1H12zM14 14h2v1H14zM18 14h2v1H18zM22 14h1v1H22zM24 14h2v1H24zM28 14h1v1H28zM30 14h1v1H30zM6 15h1v1H6zM8 15h1v1H8zM11 15h2v1H11zM16 15h1v1H16zM18 15h5v1H18zM25 15h1v1H25zM29 15h1v1H29zM32,15 h1v1H32zM5 16h3v1H5zM10 16h4v1H10zM15 16h5v1H15zM21 16h1v1H21zM24 16h4v1H24zM32,16 h1v1H32zM5 17h1v1H5zM7 17h1v1H7zM11 17h1v1H11zM13 17h1v1H13zM15 17h1v1H15zM20 17h1v1H20zM22 17h2v1H22zM26,17 h7v1H26zM8 18h1v1H8zM10 18h4v1H10zM15 18h2v1H15zM18 18h2v1H18zM21 18h1v1H21zM23 18h2v1H23zM30 18h1v1H30zM32,18 h1v1H32zM7 19h1v1H7zM13 19h2v1H13zM16 19h4v1H16zM22 19h1v1H22zM24 19h1v1H24zM28 19h1v1H28zM30 19h1v1H30zM32,19 h1v1H32zM5 20h1v1H5zM7 20h5v1H7zM13 20h1v1H13zM15 20h2v1H15zM19 20h2v1H19zM22 20h1v1H22zM29 20h1v1H29zM4 21h2v1H4zM7 21h2v1H7zM11 21h2v1H11zM14 21h1v1H14zM16 21h1v1H16zM19 21h1v1H19zM21 21h1v1H21zM23 21h2v1H23zM28 21h1v1H28zM30 21h2v1H30zM4 22h3v1H4zM9 22h2v1H9zM13 22h3v1H13zM17 22h3v1H17zM21 22h1v1H21zM23 22h1v1H23zM26 22h1v1H26zM29 22h1v1H29zM32,22 h1v1H32zM4 23h2v1H4zM7 23h1v1H7zM9 23h1v1H9zM11 23h4v1H11zM16 23h2v1H16zM19 23h1v1H19zM22 23h1v1H22zM25 23h3v1H25zM29 23h2v1H29zM4 24h5v1H4zM10 24h2v1H10zM13 24h1v1H13zM16 24h2v1H16zM19 24h1v1H19zM21 24h1v1H21zM24 24h8v1H24zM12 25h1v1H12zM16 25h2v1H16zM19 25h1v1H19zM21 25h2v1H21zM24 25h1v1H24zM28 25h2v1H28zM4 26h7v1H4zM12 26h1v1H12zM15 26h1v1H15zM17 26h1v1H17zM19 26h1v1H19zM23 26h2v1H23zM26 26h1v1H26zM28 26h2v1H28zM4 27h1v1H4zM10 27h1v1H10zM12 27h1v1H12zM15 27h3v1H15zM19 27h3v1H19zM24 27h1v1H24zM28 27h1v1H28zM31 27h1v1H31zM4 28h1v1H4zM6 28h3v1H6zM10 28h1v1H10zM12 28h1v1H12zM15 28h1v1H15zM17 28h1v1H17zM19 28h1v1H19zM22 28h8v1H22zM31,28 h2v1H31zM4 29h1v1H4zM6 29h3v1H6zM10 29h1v1H10zM12 29h2v1H12zM15 29h5v1H15zM21 29h1v1H21zM24 29h2v1H24zM32,29 h1v1H32zM4 30h1v1H4zM6 30h3v1H6zM10 30h1v1H10zM14 30h1v1H14zM17 30h3v1H17zM22 30h1v1H22zM25 30h1v1H25zM27 30h2v1H27zM30,30 h3v1H30zM4 31h1v1H4zM10 31h1v1H10zM13 31h2v1H13zM16 31h1v1H16zM19 31h1v1H19zM22 31h1v1H22zM25 31h1v1H25zM29 31h2v1H29zM32,31 h1v1H32zM4 32h7v1H4zM12 32h1v1H12zM15 32h2v1H15zM19 32h3v1H19zM23 32h3v1H23zM28 32h1v1H28z" shape-rendering="crispEdges"></path></svg>
